<mxfile host="app.diagrams.net" modified="2023-10-10T10:11:56.410Z" agent="Mozilla/5.0 (Windows NT 10.0; Win64; x64) AppleWebKit/537.36 (KHTML, like Gecko) Chrome/117.0.0.0 Safari/537.36" version="22.0.4" etag="TWHh4JSKJWr3AE1HMwLs" type="github">
  <diagram name="PÃ¡gina-1" id="oNnmPDuNS-Z16-AUq_U9">
    <mxGraphModel>
      <root>
        <mxCell id="0" />
        <mxCell id="1" parent="0" />
      </root>
    </mxGraphModel>
  </diagram>
</mxfile>
